2.6Hz3min_grf.mot
version=1
nRows=25
nColumns 19
inDegrees=yes
endheader
time	1_ground_force_vx	1_ground_force_vy	1_ground_force_vz	1_ground_force_px	1_ground_force_py	1_ground_force_pz	1_ground_torque_x	1_ground_torque_y	1_ground_torque_z	2_ground_force_vx	2_ground_force_vy	2_ground_force_vz	2_ground_force_px	2_ground_force_py	2_ground_force_pz	2_ground_torque_x	2_ground_torque_y	2_ground_torque_z
            2.502500	          -42.188139	         1269.014219	         -109.372165	           -0.275716	            0.006290	           -0.422824	           -0.180594	            5.432244	           -0.468187	          -34.137568	         1087.399266	          127.221832	           -0.272976	            0.005516	           -0.702737	            0.123433	           -3.931756	           -0.460001
            2.503000	          -41.588945	         1262.521109	         -108.576057	           -0.275421	            0.006290	           -0.422812	           -0.179695	            5.455037	           -0.469130	          -35.523044	         1081.868935	          127.390430	           -0.272538	            0.005519	           -0.703076	            0.123129	           -3.749950	           -0.441558
            2.503500	          -41.494598	         1256.029129	         -108.007987	           -0.275202	            0.006290	           -0.422742	           -0.172754	            5.229222	           -0.449669	          -36.159090	         1076.342893	          127.183285	           -0.272179	            0.005521	           -0.703209	            0.121822	           -3.626253	           -0.428487
            2.504000	          -40.895436	         1249.716437	         -107.211106	           -0.274823	            0.006290	           -0.422653	           -0.163514	            4.996808	           -0.428668	          -36.789955	         1069.344653	          126.642394	           -0.271598	            0.005523	           -0.703167	            0.117631	           -3.419098	           -0.404923
            2.504500	          -40.663573	         1243.945227	         -106.594435	           -0.274655	            0.006289	           -0.422500	           -0.158182	            4.838976	           -0.414655	          -37.800300	         1063.634273	          126.059326	           -0.271202	            0.005525	           -0.703385	            0.117176	           -3.297126	           -0.390767
            2.505000	          -40.156278	         1236.731748	         -105.938762	           -0.274481	            0.006290	           -0.422618	           -0.158160	            4.871002	           -0.417251	          -38.434968	         1057.739494	          125.944723	           -0.270809	            0.005526	           -0.703385	            0.120663	           -3.320663	           -0.395390
            2.505500	          -39.786773	         1230.960369	         -105.276565	           -0.274195	            0.006289	           -0.422376	           -0.160494	            4.965500	           -0.424669	          -39.585902	         1052.029185	          125.267859	           -0.270549	            0.005528	           -0.703517	            0.120092	           -3.191559	           -0.380027
            2.506000	          -39.508265	         1223.926234	         -104.436142	           -0.273944	            0.006289	           -0.422419	           -0.160282	            4.965366	           -0.423689	          -40.220509	         1046.133903	          125.294033	           -0.270088	            0.005530	           -0.703611	            0.119288	           -3.102673	           -0.371603
            2.506500	          -39.000790	         1216.351966	         -103.736164	           -0.273798	            0.006289	           -0.422522	           -0.156767	            4.889229	           -0.416976	          -40.570278	         1039.136678	          124.753022	           -0.269774	            0.005531	           -0.703623	            0.117003	           -2.996827	           -0.359782
            2.507000	          -39.136093	         1210.401298	         -103.302763	           -0.273631	            0.006289	           -0.422348	           -0.150094	            4.642099	           -0.396184	          -40.927420	         1034.165564	          124.078447	           -0.269419	            0.005533	           -0.703744	            0.114562	           -2.894797	           -0.347316
            2.507500	          -38.904009	         1204.629695	         -102.594372	           -0.273342	            0.006288	           -0.422263	           -0.145424	            4.502929	           -0.383500	          -40.955868	         1029.010885	          123.590788	           -0.268995	            0.005535	           -0.703955	            0.111061	           -2.790397	           -0.335145
            2.508000	          -38.671837	         1199.038069	         -101.839357	           -0.273153	            0.006288	           -0.422135	           -0.141391	            4.383887	           -0.372342	          -41.025975	         1022.384038	          122.816325	           -0.268814	            0.005536	           -0.703960	            0.110279	           -2.748200	           -0.330134
            2.508500	          -38.531726	         1192.366120	         -101.318026	           -0.272977	            0.006288	           -0.422138	           -0.141096	            4.366213	           -0.371007	          -41.429338	         1017.229010	          122.047257	           -0.268453	            0.005537	           -0.704024	            0.108486	           -2.663683	           -0.319589
            2.509000	          -38.345330	         1185.152580	         -100.661557	           -0.272729	            0.006288	           -0.422230	           -0.143710	            4.441707	           -0.377259	          -41.734196	         1010.783935	          121.648974	           -0.268256	            0.005538	           -0.703940	            0.109304	           -2.647289	           -0.318604
            2.509500	          -37.883633	         1179.740583	          -99.768766	           -0.272525	            0.006287	           -0.421946	           -0.143593	            4.471639	           -0.378159	          -41.622753	         1005.813965	          121.161913	           -0.267800	            0.005540	           -0.704215	            0.108352	           -2.618322	           -0.315407
            2.510000	          -37.972592	         1172.887975	          -99.201788	           -0.272313	            0.006288	           -0.422099	           -0.142618	            4.405139	           -0.372583	          -41.322109	         1000.293695	          120.250440	           -0.267579	            0.005541	           -0.704162	            0.102915	           -2.491276	           -0.299489
            2.510500	          -37.969163	         1166.574774	          -98.311723	           -0.272055	            0.006287	           -0.422016	           -0.136938	            4.207323	           -0.354567	          -41.252990	          994.035515	          119.477231	           -0.267358	            0.005542	           -0.704257	            0.099275	           -2.392135	           -0.287521
            2.511000	          -38.196100	         1160.984240	          -97.830698	           -0.271929	            0.006287	           -0.421858	           -0.129900	            3.948351	           -0.332709	          -40.905494	          988.515414	          118.565753	           -0.267139	            0.005543	           -0.704429	            0.097888	           -2.365540	           -0.283731
            2.511500	          -37.597075	         1154.131175	          -97.127854	           -0.271791	            0.006287	           -0.421895	           -0.129538	            3.976476	           -0.334647	          -40.608228	          983.916410	          117.516789	           -0.266797	            0.005545	           -0.704477	            0.093772	           -2.272041	           -0.271368
            2.512000	          -37.823602	         1146.918144	          -96.607933	           -0.271632	            0.006288	           -0.422041	           -0.130902	            3.969332	           -0.334347	          -40.304220	          977.475041	          116.695886	           -0.266469	            0.005545	           -0.704318	            0.092661	           -2.247261	           -0.268289
            2.512500	          -37.913393	         1141.508645	          -96.264047	           -0.271266	            0.006287	           -0.421902	           -0.134107	            4.037747	           -0.340505	          -39.912032	          972.508931	          115.410935	           -0.266259	            0.005547	           -0.704662	            0.091987	           -2.241386	           -0.265993
            2.513000	          -37.818763	         1135.376423	          -95.556861	           -0.271204	            0.006287	           -0.421767	           -0.133734	            4.014892	           -0.337906	          -39.701014	          965.882809	          114.683273	           -0.266107	            0.005547	           -0.704382	            0.090251	           -2.195710	           -0.260706
            2.513500	          -37.722984	         1128.521491	          -94.440067	           -0.270980	            0.006287	           -0.421950	           -0.127969	            3.828315	           -0.320372	          -38.934506	          961.100626	          113.821164	           -0.265974	            0.005548	           -0.704485	            0.085145	           -2.101813	           -0.248913
            2.514000	          -37.629409	         1121.309899	          -94.241937	           -0.270804	            0.006288	           -0.421993	           -0.125885	            3.751229	           -0.315277	          -38.304681	          955.214096	          112.673605	           -0.265697	            0.005549	           -0.704538	            0.081746	           -2.038528	           -0.240457
            2.514500	          -37.810218	         1116.619945	          -93.573737	           -0.270618	            0.006286	           -0.421618	           -0.117772	            3.478068	           -0.291465	          -37.579043	          948.774539	          111.805603	           -0.265624	            0.005549	           -0.704552	            0.081795	           -2.065126	           -0.243359
